<svg width="1440" height="373" viewBox="0 0 1440 373" fill="none" xmlns="http://www.w3.org/2000/svg">
<rect width="499.686" height="187.328" rx="93.6642" transform="matrix(-0.707107 -0.707107 -0.707107 0.707107 1584.27 353.381)" fill="#FFC3FF"/>
<rect x="-145" y="353.332" width="499.686" height="187.469" rx="93.7347" transform="rotate(-45 -145 353.332)" fill="#FFC3FF"/>
<rect x="170.022" y="332.404" width="371.062" height="187.469" rx="93.7347" transform="rotate(-45 170.022 332.404)" fill="#FF6043"/>
<rect width="371.062" height="187.469" rx="93.7347" transform="matrix(-0.707107 -0.707107 -0.707107 0.707107 1270.96 332.404)" fill="#FF6043"/>
<path d="M981.666 244.851C960.334 194.632 911.053 162.023 856.491 162.023L583.554 162.023C528.992 162.023 479.711 194.632 458.379 244.851V244.851C420.279 334.543 486.105 434.023 583.554 434.023H856.491C953.94 434.023 1019.77 334.543 981.666 244.851V244.851Z" fill="#C3FABD"/>
</svg>
