<svg width="96" height="93" viewBox="0 0 96 93" fill="none" xmlns="http://www.w3.org/2000/svg">
<path d="M19.3091 51.5636C17.6936 51.6314 16.0807 51.3795 14.5623 50.822C13.044 50.2645 11.6499 49.4125 10.4598 48.3145C9.26967 47.2166 8.30677 45.8942 7.62606 44.423C6.94535 42.9517 6.56019 41.3603 6.49253 39.7397C6.42487 38.1191 6.67603 36.501 7.23173 34.9778C7.78742 33.4546 8.63673 32.0561 9.73118 30.8622C10.8256 29.6683 12.1438 28.7023 13.6103 28.0194C15.0769 27.3365 16.6632 26.9501 18.2786 26.8822C27.2796 26.5052 38.6991 30.9441 48.8032 35.9728H48.9244C49.1027 35.961 49.272 35.8902 49.4058 35.7714C49.5395 35.6526 49.6302 35.4926 49.6635 35.3165C49.6968 35.1405 49.6708 34.9583 49.5897 34.7986C49.5086 34.639 49.377 34.5108 49.2154 34.4344C37.3474 28.9618 23.8368 24.1641 13.4054 24.9729C11.5746 25.1142 9.78957 25.6159 8.15209 26.4493C6.51461 27.2827 5.05678 28.4316 3.86187 29.8302C2.66696 31.2288 1.75838 32.8498 1.18795 34.6007C0.617515 36.3516 0.396426 38.1981 0.537314 40.0347C0.678203 41.8713 1.17829 43.6621 2.00906 45.3048C2.83982 46.9475 3.98495 48.4099 5.37911 49.6087C6.77327 50.8074 8.38916 51.7189 10.1345 52.2912C11.8798 52.8634 13.7203 53.0852 15.5511 52.9439C17.329 52.7841 19.0577 52.2715 20.6365 51.4359C20.1971 51.5061 19.7537 51.5487 19.3091 51.5636Z" fill="#101151"/>
<path d="M76.2305 67.0145C74.6968 66.0974 72.9973 65.494 71.23 65.239C71.5919 65.4229 71.944 65.6258 72.2846 65.847C75.003 67.6597 76.8922 70.4814 77.5367 73.6915C78.1813 76.9016 77.5282 80.237 75.7214 82.9641C73.9145 85.6911 71.1017 87.5864 67.9019 88.233C64.702 88.8796 61.3772 88.2245 58.6588 86.4118C51.155 81.4135 44.5118 71.0764 39.2628 61.0433C39.1089 60.9528 38.9295 60.9161 38.7525 60.9388C38.5756 60.9616 38.4112 61.0426 38.2851 61.1691C38.1589 61.2957 38.0782 61.4606 38.0555 61.6381C38.0328 61.8156 38.0694 61.9956 38.1596 62.15C44.5664 73.5634 52.7067 85.4268 61.5864 90.9237C63.1513 91.8883 64.8903 92.5342 66.704 92.8246C68.5178 93.1151 70.3708 93.0443 72.1572 92.6163C73.9437 92.1883 75.6286 91.4114 77.1158 90.3302C78.603 89.2489 79.8634 87.8844 80.8249 86.3145C81.7865 84.7446 82.4304 83.0001 82.7199 81.1806C83.0093 79.3611 82.9388 77.5021 82.5121 75.7099C82.0855 73.9178 81.3112 72.2274 80.2334 70.7355C79.1556 69.2435 77.7954 67.9791 76.2305 67.0145Z" fill="#101151"/>
<path d="M92.6081 30.1475C90.2051 27.3172 86.7801 25.56 83.086 25.2624C79.392 24.9648 75.7313 26.1511 72.9089 28.5605C71.6232 29.6843 70.5637 31.0444 69.7874 32.5676C70.0298 32.3366 70.2783 32.1116 70.545 31.8987C71.8092 30.8662 73.2652 30.0958 74.8285 29.6323C76.3919 29.1688 78.0314 29.0214 79.652 29.1987C81.2726 29.3759 82.842 29.8744 84.269 30.665C85.696 31.4556 86.9523 32.5227 87.9649 33.8043C88.9775 35.0859 89.7264 36.5565 90.1679 38.1308C90.6094 39.7051 90.7349 41.3517 90.537 42.975C90.3391 44.5983 89.8218 46.166 89.0151 47.5871C88.2083 49.0082 87.1283 50.2545 85.8376 51.2535C78.8005 56.8416 67.0476 59.9792 55.9313 61.8764L55.8404 61.9554C55.7013 62.0688 55.6043 62.2257 55.5647 62.401C55.5252 62.5763 55.5454 62.7598 55.6222 62.9222C55.6996 63.086 55.8293 63.2191 55.9907 63.3006C56.1521 63.3821 56.3359 63.4073 56.5132 63.3722C69.3085 60.7879 83.0616 56.7139 91.0261 49.9096C93.8474 47.499 95.599 44.063 95.8956 40.3572C96.1923 36.6513 95.0098 32.9789 92.6081 30.1475Z" fill="#101151"/>
<path d="M61.247 9.151C60.57 7.41673 59.5554 5.83512 58.2625 4.49855C56.9695 3.16197 55.424 2.09722 53.7163 1.36642C52.0086 0.635625 50.1729 0.253439 48.3164 0.242199C46.4599 0.230958 44.6197 0.590888 42.9033 1.30095C41.187 2.01102 39.6288 3.057 38.3198 4.37782C37.0109 5.69864 35.9774 7.26784 35.2796 8.99379C34.5818 10.7197 34.2337 12.5679 34.2557 14.4302C34.2777 16.2926 34.6694 18.1319 35.4078 19.8408C36.0781 21.4101 37.0386 22.8378 38.2384 24.0486C38.0808 23.7263 37.9354 23.398 37.8081 23.0575C37.2141 21.5309 36.929 19.9011 36.9692 18.2628C37.0094 16.6246 37.3742 15.0108 38.0424 13.5155C38.7105 12.0201 39.6687 10.6731 40.861 9.55294C42.0532 8.43279 43.4558 7.56188 44.987 6.99096C46.5181 6.42003 48.1472 6.16051 49.7793 6.22753C51.4115 6.29455 53.014 6.68677 54.4935 7.38131C55.973 8.07586 57.2999 9.05884 58.397 10.273C59.494 11.4872 60.3392 12.9082 60.8833 14.4533C64.0049 22.8872 63.3382 35.0911 61.7137 46.2552C61.7137 46.316 61.7683 46.3768 61.7925 46.4437C61.858 46.6118 61.9776 46.7531 62.1323 46.8452C62.2871 46.9372 62.4681 46.9747 62.6465 46.9516C62.825 46.9286 62.9906 46.8463 63.117 46.7179C63.2434 46.5894 63.3234 46.4223 63.3442 46.243C64.8474 33.2304 65.2353 18.8497 61.247 9.151Z" fill="#101151"/>
<path d="M40.8932 76.6341C40.8345 77.1021 40.7434 77.5653 40.6205 78.0205C39.7181 81.1474 37.6214 83.7904 34.7867 85.3746C31.9519 86.9588 28.6083 87.3562 25.4831 86.4802C22.3578 85.6042 19.7037 83.5258 18.0981 80.6969C16.4924 77.8681 16.065 74.5177 16.9088 71.3743C19.3333 62.6486 27.1099 53.0959 35.0259 44.9904C35.0669 44.8166 35.0494 44.634 34.9761 44.4712C34.9028 44.3084 34.7778 44.1746 34.6207 44.0905C34.4635 44.0065 34.2831 43.977 34.1075 44.0067C33.9319 44.0364 33.7711 44.1236 33.65 44.2546C24.8127 53.8986 16.0723 65.2998 13.6115 75.5031C13.1805 77.2926 13.105 79.1497 13.3894 80.9685C13.6738 82.7872 14.3125 84.532 15.2691 86.1031C16.2256 87.6742 17.4813 89.0409 18.9643 90.1252C20.4474 91.2095 22.1288 91.9901 23.9126 92.4225C25.6964 92.8549 27.5476 92.9306 29.3605 92.6453C31.1735 92.36 32.9127 91.7192 34.4788 90.7596C36.0449 89.8 37.4073 88.5404 38.4881 87.0526C39.5689 85.5648 40.3471 83.8779 40.7781 82.0885C41.1861 80.2971 41.2253 78.4412 40.8932 76.6341Z" fill="#101151"/>
</svg>
