<svg width="384" height="69" viewBox="0 0 384 69" fill="none" xmlns="http://www.w3.org/2000/svg">
<path d="M35.9859 62.7645C37.7727 60.5267 38.7112 57.7259 38.6346 54.8597C38.6463 53.5304 38.2919 52.2236 37.6103 51.0836C36.9351 49.9341 36.0726 48.9064 35.0585 48.0432C33.7185 46.972 32.2554 46.0656 30.7004 45.3435C28.8093 44.407 27.0132 43.6145 25.312 42.9659C23.6148 42.3153 21.3661 41.4944 18.584 40.4972C11.5892 38.1379 6.74022 35.4077 4.03689 32.3065C1.33356 29.2054 -0.0120414 25.2935 8.11777e-05 20.5708C8.11777e-05 14.5429 1.94979 9.88106 5.84921 6.58534C9.69485 3.28808 14.458 1.25659 19.4931 0.766159V0.948581C16.5157 1.68205 13.8001 3.23154 11.6499 5.42394C10.6418 6.49135 9.8549 7.74879 9.33468 9.12342C8.81446 10.4981 8.57128 11.9626 8.61922 13.4322C8.57225 14.8986 8.91247 16.3515 9.60541 17.6435C10.2984 18.9356 11.3194 20.021 12.5651 20.7898C15.1957 22.5248 20.0447 24.6956 27.1122 27.3021C33.917 29.6614 38.9923 32.3471 42.3381 35.359C45.6839 38.371 47.3548 42.4531 47.3508 47.6055C47.3508 53.8118 45.5708 58.5304 42.0108 61.7612C38.4737 64.9798 33.9981 66.971 29.2457 67.4406V67.2521C31.8947 66.4951 34.245 64.9338 35.9738 62.7828L35.9859 62.7645ZM16.4383 66.6987C14.106 66.2531 11.7505 65.9405 9.38294 65.7623C6.10177 65.7015 3.37823 66.2913 1.21234 67.5318V41.8167H1.7033C8.20098 56.6535 15.323 65.1907 23.6754 67.4223V67.6108C21.2467 67.4455 18.83 67.1349 16.4383 66.6805V66.6987ZM32.1976 1.34991C34.4546 1.70391 36.7326 1.90704 39.0165 1.95797C40.4216 1.95904 41.8225 1.80199 43.1927 1.48976L44.405 23.4713H44.2231C37.1072 9.87498 30.7307 2.71197 25.0998 1.22221V0.650625C26.9546 0.719539 29.3225 0.952637 32.2036 1.34991" fill="#101151"/>
<path d="M143.186 1.67826C139.73 2.50835 136.579 4.29987 134.094 6.84681C131.552 9.42501 129.2 13.2903 127.038 18.4426H126.85L128.335 1.48976H143.192L143.186 1.67826ZM163.327 55.3157C163.298 57.677 163.941 59.9976 165.182 62.0044C166.371 63.972 168.113 65.5437 170.189 66.5224V66.7109H141.791V66.5224C143.901 65.5796 145.679 64.0225 146.895 62.0531C148.14 60.0478 148.786 57.7265 148.756 55.3644V1.48976H163.303L163.327 55.3157ZM183.657 1.48976L185.233 18.4426H185.051C182.881 13.2862 180.529 9.42096 177.995 6.84681C175.51 4.29987 172.359 2.50835 168.904 1.67826V1.48976H183.657Z" fill="#101151"/>
<path d="M217.103 64.7955C213.515 63.0678 210.225 60.777 207.356 58.0094C204.156 54.8504 201.724 50.9951 200.246 46.742C198.511 41.9113 197.857 36.7565 198.331 31.6437C199.07 22.4174 202.247 15.1043 207.859 9.70472C213.472 4.3051 219.907 1.20194 227.165 0.395239V0.772237C224.461 1.98837 221.879 4.68819 219.436 9.25476C216.994 13.8213 215.484 19.6648 214.915 26.7853C214.15 35.4699 215.1 44.2206 217.709 52.5369C220.291 60.618 223.528 65.1846 227.407 66.9906V67.5622C223.019 67.3433 220.582 66.419 217.103 64.7711" fill="#101151"/>
<path d="M244.742 64.7955C241.269 66.4433 238.832 67.3676 234.438 67.5865V67.0149C238.329 65.1907 241.566 60.6424 244.136 52.5612C246.747 44.2369 247.694 35.4776 246.924 26.7853C246.355 19.6628 244.847 13.8193 242.403 9.25476C239.978 4.68819 237.378 1.98837 234.674 0.772237V0.395239C241.948 1.20599 248.387 4.30105 253.992 9.6804C259.596 15.0598 262.772 22.3728 263.52 31.6194C263.994 36.7322 263.34 41.887 261.605 46.7177C260.117 50.9859 257.665 54.8507 254.44 58.0094C251.586 60.7727 248.313 63.0633 244.742 64.7955Z" fill="#101151"/>
<path d="M355.597 66.5224C357.706 65.5796 359.484 64.0225 360.7 62.0531C361.941 60.0462 362.585 57.7256 362.555 55.3644V12.8545C362.585 10.4932 361.941 8.17267 360.7 6.16578C359.484 4.1964 357.706 2.63925 355.597 1.6965V1.508H384V1.6965C381.927 2.65933 380.184 4.21393 378.987 6.16578C377.747 8.17267 377.103 10.4932 377.133 12.8545V55.3157C377.103 57.677 377.747 59.9976 378.987 62.0044C380.184 63.9563 381.927 65.5109 384 66.4737V66.6622H355.597V66.5224Z" fill="#101151"/>
<path d="M302.415 62.0227C301.175 60.0158 300.531 57.6952 300.561 55.334V1.48976H279.025V1.67826C281.134 2.62101 282.912 4.17816 284.128 6.14754C285.371 8.15392 286.016 10.4744 285.989 12.8363V55.2975C286.016 57.6593 285.371 59.9798 284.128 61.9862C282.912 63.9556 281.134 65.5127 279.025 66.4555V66.644H307.428V66.5224C305.355 65.5595 303.612 64.0049 302.415 62.0531" fill="#101151"/>
<path d="M331.988 63.8469C330.776 61.82 330.17 58.3743 330.17 53.5098C330.17 46.7319 328.081 41.92 323.902 39.0743C320.187 36.5447 314.301 34.8178 306.561 33.8814C310.871 34.1429 315.489 34.5685 318.375 34.0152C322.951 33.024 326.909 30.9749 329.352 28.3845C330.542 27.1407 331.477 25.6732 332.101 24.0662C332.725 22.4593 333.027 20.7445 332.988 19.0203C332.988 13.4991 330.968 9.20003 326.927 6.12322C322.922 3.07122 318.015 1.44898 312.986 1.51408H307.046V1.93365C310.137 2.74237 312.756 4.73075 314.889 8.3609C316.989 11.8857 318.094 15.9173 318.084 20.0236C318.084 24.5517 316.954 27.9345 314.695 30.1722C312.437 32.4099 309.45 33.5287 305.737 33.5287H303.603V33.6078L303.567 33.8814C308.392 34.98 311.422 36.79 312.659 39.3114C313.895 41.8329 314.52 46.5575 314.532 53.4854C314.532 65.6468 323.902 68.76 329.685 68.76C332.394 68.76 333.77 68.7175 333.77 68.7175L339.613 68.76V68.5351C335.734 67.6898 333.194 65.8717 331.988 63.8469Z" fill="#101151"/>
<path d="M111.685 52.1538L89.313 0H89.1311L81.9849 17.6947L93.5013 46.1887H70.9352L70.4745 47.496H94.0529L96.8471 54.3611C99.3201 60.3201 97.7038 64.3556 91.9981 66.4676V66.6561H121.607V66.5224C118.278 64.5725 114.97 59.783 111.685 52.1538Z" fill="#101151"/>
<path d="M68.1531 61.1349C67.658 58.8019 67.7623 56.381 68.4561 54.0996H67.9591C65.9753 58.8134 63.0121 63.0486 59.2672 66.5224V66.7109H73.7476V66.5224C70.6362 65.3833 68.7713 63.5874 68.1531 61.1349Z" fill="#101151"/>
</svg>
