<svg width="276" height="332" viewBox="0 0 276 332" fill="none" xmlns="http://www.w3.org/2000/svg">
<path d="M57.0326 102.313V60.779C57.0326 33.94 70.8868 1.4492 106.102 1.4492C140.506 1.4492 155.172 32.5198 155.172 57.6778C155.172 74.3434 155.288 99.5014 155.288 99.5014L57.0326 102.313Z" fill="#37BA8B"/>
<path d="M106.102 -3.05176e-05C89.6973 -3.05176e-05 76.2199 6.98506 67.1769 20.2307C59.815 30.9837 55.6124 45.7364 55.6124 60.779V103.791L156.766 100.893V99.4724C156.766 99.2115 156.65 74.1405 156.65 57.6777C156.65 43.6496 152.302 29.6504 144.738 19.2742C135.492 6.66624 122.159 -3.05176e-05 106.102 -3.05176e-05ZM58.4818 100.806V60.779C58.4818 32.8966 73.3795 2.89835 106.102 2.89835C141.028 2.89835 153.723 35.65 153.723 57.6777C153.723 71.9088 153.809 92.5452 153.838 98.0812L58.4818 100.806Z" fill="black"/>
<path d="M105.32 44.6351H106.218C76.4517 44.6351 55.5834 76.1404 55.5834 107.936L55.5834 147.962C55.5834 169.961 51.8155 186.279 92.8565 187.786L111.145 187.467C136.158 187.467 155.896 182.134 155.896 155.411L156.447 106.081C156.447 69.2713 135.115 44.6351 105.32 44.6351Z" fill="white"/>
<path d="M105.32 43.1859H106.218C108.073 43.1859 108.073 46.0843 106.218 46.0843C97.32 46.1133 88.8278 49.1566 81.6688 54.4026C74.2779 59.8226 68.5971 67.3874 64.5394 75.5318C60.2498 84.198 57.7282 93.7916 57.1485 103.443C56.8877 107.617 57.0036 111.849 57.0036 116.051C57.0036 122.544 57.0036 129.065 57.0036 135.557C57.0036 139.644 57.0036 143.76 57.0036 147.846C57.0036 153.295 56.6848 158.802 57.1195 164.251C57.1775 164.918 57.2355 165.584 57.3224 166.251C57.3224 166.338 57.3514 166.396 57.3514 166.454C57.3514 166.425 57.2934 166.135 57.3514 166.396C57.3804 166.541 57.3804 166.686 57.4094 166.831C57.4673 167.179 57.5253 167.497 57.5833 167.845C57.8151 169.063 58.105 170.251 58.4818 171.41C58.5687 171.7 58.6846 171.99 58.8006 172.28C58.8585 172.396 58.8875 172.541 58.9455 172.657C59.0904 173.033 58.8585 172.512 59.0325 172.859C59.2933 173.41 59.5542 173.961 59.844 174.483C60.1338 175.004 60.4527 175.526 60.8294 176.019C60.9164 176.135 61.0033 176.251 61.0613 176.337C61.2642 176.598 60.9164 176.164 61.0613 176.337C61.0903 176.395 61.1483 176.453 61.1773 176.511C61.3801 176.772 61.583 177.004 61.8149 177.265C62.2497 177.729 62.6844 178.192 63.1771 178.627C63.409 178.83 63.6119 179.004 63.8438 179.207C63.9017 179.265 63.9887 179.323 64.0756 179.381C64.2495 179.497 63.8727 179.236 64.0466 179.352C64.1916 179.468 64.3365 179.584 64.5104 179.7C65.6987 180.569 67.003 181.294 68.3362 181.931C68.5102 182.018 68.713 182.105 68.8869 182.192C68.9739 182.221 69.3797 182.395 69.1768 182.308C69.5536 182.482 69.9593 182.627 70.3651 182.772C71.2056 183.091 72.0752 183.381 72.9447 183.641C74.9156 184.221 76.9155 184.685 78.9443 185.033C83.5238 185.844 88.2771 186.366 92.9435 186.395C95.1173 186.395 97.2911 186.308 99.4938 186.279C105.233 186.163 111 186.192 116.739 185.96C120.971 185.815 125.144 185.467 129.231 184.685C131.144 184.337 133.057 183.873 134.941 183.323C135.811 183.062 136.68 182.772 137.521 182.453C138.448 182.105 138.941 181.902 139.81 181.468C143.027 179.96 145.636 178.163 147.984 175.584C150.215 173.12 151.897 169.961 152.911 166.715C154.36 161.99 154.418 157.179 154.476 152.281C154.534 146.774 154.592 141.267 154.65 135.76C154.737 129.239 154.795 122.746 154.882 116.225C154.911 112.863 154.969 109.501 154.998 106.139C155.056 96.9798 153.636 87.705 150.447 79.0968C147.578 71.3582 143.143 64.1992 137.144 58.5184C131.492 53.1563 124.536 49.3595 116.971 47.5045C113.087 46.548 109.319 46.1423 105.32 46.1133C103.465 46.0843 103.465 43.1859 105.32 43.1859C113.754 43.1859 122.13 45.1858 129.492 49.2725C136.709 53.3013 142.738 59.214 147.23 66.1411C152.215 73.8508 155.288 82.7488 156.766 91.7917C157.693 97.5595 157.925 103.356 157.867 109.182C157.809 114.747 157.751 120.283 157.664 125.848C157.577 132.485 157.519 139.093 157.432 145.731C157.403 148.948 157.345 152.194 157.317 155.44C157.259 163.585 155.433 171.903 149.665 177.99C144.448 183.496 137.028 186.192 129.724 187.525C122.739 188.801 115.696 188.858 108.624 189.003C103.378 189.09 98.1026 189.322 92.8276 189.293C90.19 189.264 87.4945 189.032 84.886 188.772C82.4224 188.511 79.9298 188.192 77.4951 187.728C73.7272 187.004 70.0173 185.989 66.5682 184.308C61.4671 181.844 57.5543 177.758 55.7283 172.367C53.9313 167.121 53.9603 161.353 54.0183 155.875C54.0472 151.817 54.1052 147.788 54.1052 143.731L54.1052 125.036V109.211C54.1052 101.675 55.0037 94.1684 57.0905 86.9225C59.786 77.5027 64.2785 68.5757 70.568 61.0399C76.5097 53.881 84.1904 48.1711 93.0015 45.2728C97.2621 43.8815 101.755 43.1859 106.218 43.1859C106.218 44.1424 106.218 45.1278 106.218 46.0843C105.928 46.0843 105.609 46.0843 105.32 46.0843C103.465 46.0843 103.465 43.1859 105.32 43.1859Z" fill="black"/>
<path d="M68.0754 192.51C77.5531 192.51 80.4515 184.395 80.4515 179.323V162.077C80.4515 154.397 74.8576 148.194 67.9884 148.194C61.1193 148.194 55.5254 154.426 55.5254 162.077V179.323C55.5254 183.815 58.4238 192.51 68.0754 192.51Z" fill="white"/>
<path d="M67.9884 146.716C60.3077 146.716 54.0762 153.585 54.0762 162.048V179.294C54.0762 184.975 57.8731 193.96 68.0754 193.96C79.0023 193.96 81.9007 184.395 81.9007 179.323V162.077C81.9007 153.585 75.6402 146.716 67.9884 146.716ZM68.0754 191.061C58.9745 191.061 56.9746 182.569 56.9746 179.323V162.077C56.9746 155.208 61.9018 149.643 67.9884 149.643C74.075 149.643 79.0023 155.237 79.0023 162.077V179.323C79.0023 183.67 76.6836 191.061 68.0754 191.061Z" fill="black"/>
<path d="M93.2913 196.858C102.769 196.858 105.667 188.743 105.667 183.67V164.106C105.667 156.426 100.103 150.223 93.2044 150.223C86.3352 150.223 80.7413 156.455 80.7413 164.106V183.67C80.7413 188.163 83.6397 196.858 93.2913 196.858Z" fill="white"/>
<path d="M93.2043 148.745C85.5236 148.745 79.2921 155.614 79.2921 164.077V183.641C79.2921 186.047 80.0457 189.699 82.2195 192.771C83.9875 195.293 87.3496 198.307 93.2913 198.307C104.218 198.307 107.117 188.743 107.117 183.67V164.106C107.117 155.614 100.856 148.745 93.2043 148.745ZM93.2913 195.409C89.5234 195.409 86.596 193.96 84.5962 191.119C82.8281 188.627 82.2195 185.641 82.2195 183.67V164.106C82.2195 157.237 87.1467 151.672 93.2333 151.672C99.3199 151.672 104.247 157.266 104.247 164.106V183.67C104.218 188.018 101.899 195.409 93.2913 195.409Z" fill="black"/>
<path d="M118.217 198.597C127.695 198.597 130.593 190.482 130.593 185.409V165.845C130.593 158.165 125.029 151.962 118.13 151.962C111.261 151.962 105.667 158.194 105.667 165.845V185.409C105.667 189.902 108.566 198.597 118.217 198.597Z" fill="white"/>
<path d="M118.13 150.484C110.45 150.484 104.218 157.353 104.218 165.816V185.38C104.218 187.786 104.972 191.438 107.146 194.51C108.914 197.032 112.276 200.046 118.217 200.046C129.144 200.046 132.043 190.482 132.043 185.409V165.845C132.043 157.353 125.782 150.484 118.13 150.484ZM118.217 197.148C114.449 197.148 111.522 195.699 109.522 192.858C107.754 190.366 107.146 187.38 107.146 185.409V165.845C107.146 158.976 112.073 153.411 118.159 153.411C124.246 153.411 129.173 159.005 129.173 165.845V185.409C129.144 189.757 126.826 197.148 118.217 197.148Z" fill="black"/>
<path d="M143.143 245.551C152.621 245.551 155.52 237.435 155.52 232.363V151.933C155.52 144.252 149.955 150.223 143.056 150.223C136.187 150.223 130.593 144.281 130.593 151.933V232.363C130.593 236.856 133.492 245.551 143.143 245.551Z" fill="white"/>
<path d="M132.883 146.542C132.13 146.542 131.434 146.716 130.796 147.18C129.318 148.252 129.144 150.397 129.144 151.933V232.363C129.144 234.769 129.898 238.421 132.072 241.493C133.84 243.986 137.202 247 143.143 247C154.07 247 156.969 237.435 156.969 232.363V151.933C156.969 150.426 156.795 148.281 155.317 147.18C153.694 146.02 151.607 146.687 149.201 147.47C147.346 148.078 145.259 148.745 143.085 148.745C140.912 148.745 138.796 148.078 136.97 147.47C135.434 146.977 134.071 146.542 132.883 146.542ZM143.143 244.102C139.376 244.102 136.448 242.652 134.448 239.812C132.68 237.319 132.072 234.334 132.072 232.363V151.933C132.072 149.933 132.477 149.585 132.535 149.527C132.941 149.209 134.738 149.817 136.071 150.223C138.013 150.861 140.448 151.643 143.085 151.643C145.723 151.643 148.158 150.861 150.1 150.223C151.404 149.788 153.201 149.209 153.636 149.527C153.694 149.556 154.099 149.933 154.099 151.933V232.363C154.07 236.711 151.752 244.102 143.143 244.102Z" fill="black"/>
<path d="M155.867 97.0378L157.983 113.53C158.534 117.848 158.795 122.196 158.708 126.572C158.679 129.21 158.621 131.673 158.621 134.427C158.621 141.267 157.317 153.991 154.853 156.455C149.346 161.961 143.549 164.57 139.202 164.86C134.854 165.15 123.55 164.86 111.667 164.86C100.363 164.86 94.8564 160.512 94.8564 152.107C94.8564 142.542 100.914 138.485 109.638 138.485H126.449C126.449 138.485 135.869 138.485 128.043 138.485C123.898 138.485 116.739 130.079 114.565 119.065C112.71 109.559 116.449 98.7768 118.188 93.8495" fill="white"/>
<path d="M157.316 97.0378C157.461 98.1971 157.606 99.3565 157.751 100.545C158.041 102.893 158.36 105.211 158.65 107.559C158.882 109.356 159.113 111.182 159.345 112.979C159.751 116.225 160.041 119.442 160.128 122.717C160.186 125.094 160.128 127.442 160.099 129.818C160.07 131.818 160.099 133.818 160.041 135.818C159.983 139.093 159.722 142.397 159.287 145.644C158.911 148.658 158.476 151.788 157.432 154.658C157.027 155.759 156.563 156.802 155.722 157.614C154.099 159.237 152.302 160.715 150.418 161.99C147.491 163.99 144.129 165.613 140.622 166.135C137.839 166.541 134.97 166.425 132.188 166.425C128.014 166.425 123.84 166.367 119.638 166.338C117.232 166.309 114.855 166.309 112.45 166.309C110.45 166.309 108.45 166.222 106.479 165.961C103.61 165.555 100.653 164.686 98.3055 162.889C96.1027 161.208 94.5666 158.889 93.9 156.194C93.5521 154.745 93.4072 153.237 93.4362 151.73C93.4652 150.02 93.6681 148.252 94.1898 146.6C95.0883 143.702 96.8853 141.238 99.4069 139.586C102.015 137.905 105.146 137.209 108.189 137.064C110.131 136.948 112.073 137.035 114.044 137.035H118.188H123H130.796H132.709C133.463 137.035 134.187 137.702 134.158 138.485C134.129 139.267 133.521 139.934 132.709 139.934C131.666 139.934 130.622 139.934 129.579 139.934C128.681 139.934 127.782 139.992 126.884 139.789C126.275 139.644 125.666 139.383 125.116 139.122C123.811 138.456 122.681 137.47 121.666 136.427C120.391 135.123 119.261 133.644 118.246 132.079C115.87 128.398 114.189 124.196 113.29 119.906C112.276 115.153 112.566 110.283 113.406 105.53C114.102 101.733 115.203 98.0522 116.449 94.4003L116.797 93.4438C117.058 92.7192 117.812 92.1685 118.594 92.4294C119.29 92.6612 119.869 93.4438 119.609 94.2264C118.449 97.5305 117.377 100.893 116.623 104.342C116.391 105.414 116.188 106.487 116.015 107.588C115.986 107.849 115.928 108.139 115.899 108.399C115.87 108.689 115.928 108.197 115.899 108.486C115.87 108.631 115.87 108.805 115.841 108.95C115.783 109.53 115.725 110.109 115.667 110.689C115.58 111.849 115.551 112.979 115.551 114.138C115.551 114.718 115.58 115.269 115.638 115.819C115.667 116.109 115.696 116.37 115.725 116.66C115.725 116.776 115.754 116.892 115.754 117.008C115.754 117.095 115.783 117.182 115.783 117.239C115.812 117.413 115.783 117.326 115.783 117.211C115.899 118.341 116.188 119.471 116.449 120.573C116.71 121.645 117.058 122.717 117.435 123.761C117.609 124.254 117.812 124.746 118.014 125.239C118.043 125.268 118.188 125.645 118.101 125.471C118.043 125.297 118.101 125.471 118.101 125.5C118.13 125.558 118.159 125.645 118.188 125.703C118.304 125.964 118.42 126.195 118.536 126.456C118.971 127.384 119.435 128.282 119.927 129.152C120.391 129.963 120.884 130.746 121.435 131.5C121.55 131.673 121.695 131.847 121.811 132.05C121.869 132.137 121.927 132.224 122.014 132.311C122.043 132.34 122.072 132.398 122.101 132.427C122.246 132.63 121.956 132.253 122.072 132.398C122.333 132.717 122.594 133.036 122.855 133.354C123.376 133.934 123.898 134.514 124.478 135.036C124.739 135.267 125 135.499 125.26 135.702C125.434 135.847 124.971 135.499 125.231 135.673C125.289 135.731 125.347 135.76 125.434 135.818C125.579 135.905 125.695 136.021 125.84 136.108C126.072 136.282 126.333 136.427 126.594 136.543C126.71 136.601 126.826 136.659 126.97 136.717C127.086 136.775 127.318 136.833 126.855 136.659C126.912 136.688 126.97 136.717 127.028 136.717C127.26 136.804 127.492 136.891 127.753 136.92C127.811 136.92 127.869 136.948 127.927 136.948C128.159 137.006 127.637 136.92 127.724 136.92C127.84 136.92 127.956 136.948 128.072 136.948C129.579 136.977 131.115 136.948 132.622 136.948H132.796C133.55 136.948 134.274 137.615 134.245 138.398C134.216 139.18 133.608 139.847 132.796 139.847C130.564 139.847 128.304 139.847 126.072 139.847C124.362 139.847 122.652 139.847 120.942 139.847C118.797 139.847 116.652 139.847 114.507 139.847C112.566 139.847 110.624 139.789 108.682 139.876C108.276 139.905 107.899 139.905 107.493 139.963C107.319 139.992 107.146 139.992 106.943 140.021C106.856 140.021 106.769 140.05 106.682 140.05C106.421 140.079 107.001 139.992 106.682 140.05C105.957 140.166 105.233 140.311 104.508 140.485C104.189 140.571 103.841 140.658 103.523 140.774C103.378 140.832 103.233 140.89 103.059 140.948C102.972 140.977 102.885 141.006 102.798 141.035C102.769 141.035 102.711 141.064 102.682 141.093C102.508 141.151 102.769 141.064 102.798 141.035C102.218 141.325 101.61 141.586 101.059 141.934C100.769 142.108 100.508 142.31 100.247 142.484C100.16 142.542 100.508 142.281 100.305 142.455C100.247 142.513 100.189 142.542 100.131 142.6C100.016 142.716 99.8706 142.803 99.7547 142.919C99.5228 143.151 99.2909 143.354 99.0591 143.615C98.9431 143.731 98.8562 143.847 98.7692 143.963C98.7113 144.021 98.6823 144.079 98.6243 144.136C98.3924 144.426 98.7402 143.963 98.6243 144.136C98.2475 144.658 97.8997 145.238 97.5809 145.818C97.5229 145.962 97.436 146.107 97.378 146.252C97.349 146.31 97.2331 146.571 97.349 146.339C97.436 146.107 97.32 146.426 97.2911 146.513C97.1751 146.832 97.0592 147.18 96.9432 147.499C96.8273 147.875 96.7404 148.223 96.6534 148.6C96.6244 148.774 96.5954 148.948 96.5375 149.122C96.5085 149.209 96.5085 149.296 96.4795 149.383C96.4505 149.527 96.4795 149.875 96.4505 149.469C96.4505 149.846 96.3636 150.281 96.3346 150.658C96.3056 151.093 96.3056 151.527 96.2766 151.991C96.2766 152.687 96.3056 153.382 96.3926 154.078C96.3926 154.107 96.3926 154.165 96.4215 154.194C96.4505 154.368 96.3926 153.962 96.3926 153.991C96.4215 154.078 96.4215 154.136 96.4215 154.223C96.4505 154.397 96.4795 154.571 96.5085 154.745C96.5665 155.034 96.6244 155.353 96.7114 155.643C96.7983 155.933 96.8853 156.252 97.0012 156.542C97.0592 156.686 97.0882 156.802 97.1461 156.947C97.2331 157.208 97.0592 156.773 97.1172 156.86C97.1461 156.947 97.2041 157.034 97.2331 157.121C97.4939 157.643 97.7838 158.165 98.1026 158.628C98.1896 158.744 98.2765 158.831 98.3345 158.947C98.2475 158.831 98.1316 158.686 98.2765 158.86C98.3345 158.918 98.3924 159.005 98.4504 159.063C98.6243 159.266 98.8272 159.498 99.0301 159.701C99.233 159.904 99.4648 160.107 99.6967 160.309C99.7547 160.367 99.8126 160.396 99.8706 160.454C99.9286 160.512 99.5808 160.251 99.8126 160.396C99.9286 160.483 100.073 160.57 100.189 160.657C100.711 161.034 101.291 161.353 101.87 161.614C102.015 161.672 102.16 161.759 102.305 161.817C102.334 161.846 102.363 161.846 102.421 161.875C102.566 161.933 102.247 161.788 102.247 161.817C102.334 161.846 102.421 161.875 102.508 161.933C102.827 162.077 103.175 162.193 103.494 162.28C104.189 162.512 104.914 162.686 105.638 162.831C106.044 162.918 106.421 162.976 106.827 163.034C106.914 163.063 107.03 163.063 107.117 163.063C107.175 163.063 107.204 163.063 107.261 163.092C107.435 163.121 107.117 163.063 107.117 163.063L107.812 163.15C109.783 163.353 111.783 163.324 113.783 163.353C118.275 163.353 122.768 163.411 127.26 163.44C130.564 163.469 133.898 163.498 137.231 163.411C137.781 163.411 138.332 163.382 138.883 163.353C139.173 163.324 139.433 163.324 139.723 163.295C139.81 163.295 139.868 163.266 139.955 163.266C140.303 163.237 139.665 163.324 139.926 163.266C140.1 163.237 140.274 163.208 140.448 163.179C141.202 163.034 141.926 162.86 142.651 162.628C143.056 162.512 143.433 162.367 143.81 162.222C143.984 162.164 144.187 162.048 144.361 161.99C144.361 161.99 144.1 162.106 144.245 162.048C144.303 162.019 144.332 162.019 144.39 161.99C144.506 161.933 144.651 161.875 144.767 161.817C146.506 161.034 148.129 160.049 149.694 158.918C149.897 158.773 150.1 158.628 150.273 158.483C150.331 158.454 150.36 158.396 150.418 158.368C150.592 158.223 150.244 158.512 150.418 158.368C150.534 158.281 150.65 158.194 150.766 158.107C151.172 157.759 151.607 157.411 152.012 157.063C152.708 156.455 153.375 155.788 154.041 155.121C154.099 155.063 153.809 155.469 153.925 155.266C153.954 155.237 153.983 155.179 154.012 155.15C154.07 155.063 154.128 154.976 154.186 154.889C154.302 154.687 154.418 154.484 154.505 154.281C154.534 154.223 154.563 154.165 154.563 154.136C154.65 153.933 154.418 154.484 154.505 154.252C154.563 154.107 154.621 153.991 154.679 153.846C154.766 153.585 154.882 153.324 154.94 153.034C155.375 151.701 155.664 150.31 155.896 148.948C156.041 148.165 156.157 147.383 156.273 146.6C156.302 146.397 156.331 146.223 156.36 146.02C156.418 145.673 156.331 146.223 156.36 145.962C156.389 145.847 156.389 145.731 156.418 145.615C156.476 145.209 156.505 144.803 156.563 144.397C156.766 142.745 156.911 141.064 156.998 139.383C157.23 135.76 157.172 132.108 157.23 128.485C157.288 123.703 157.172 118.979 156.621 114.225C156.476 112.95 156.302 111.675 156.128 110.399C155.838 108.139 155.548 105.849 155.259 103.588C155.027 101.675 154.766 99.7913 154.534 97.8783C154.505 97.5885 154.447 97.2987 154.418 96.9798C154.331 96.2263 155.143 95.5017 155.867 95.5306C156.737 95.6176 157.23 96.2262 157.316 97.0378Z" fill="black"/>
<path d="M12.4608 318.875C13.5141 311.765 19.6168 306.5 26.8043 306.5H258.196C265.383 306.5 271.486 311.765 272.539 318.875L274.261 330.5H10.7386L12.4608 318.875Z" fill="#EAEAEA" stroke="black" stroke-width="3"/>
<path d="M93.6037 290.297C94.4667 282.999 100.654 277.5 108.003 277.5H176.997C184.346 277.5 190.533 282.999 191.396 290.297L193.312 306.5H91.6878L93.6037 290.297Z" fill="#37BA8B" stroke="black" stroke-width="3"/>
<path d="M184 265.808C196.5 265.808 203.807 273 203.807 284" stroke="black" stroke-width="3" stroke-linecap="round"/>
<line x1="54.9235" y1="237.434" x2="2.43356" y2="203.077" stroke="black" stroke-width="3" stroke-linecap="round"/>
<path d="M48.9235 253.433L18.5 245.5" stroke="black" stroke-width="3" stroke-linecap="round"/>
</svg>
