<svg width="416" height="227" viewBox="0 0 416 227" fill="none" xmlns="http://www.w3.org/2000/svg">
<path d="M244.68 189.526L414.022 156.227V20.6684H244.68V189.526Z" fill="white"/>
<path d="M152.621 85.4961C140.648 85.496 133.649 92.3846 133.649 102.92" stroke="black" stroke-width="3" stroke-linecap="round"/>
<path d="M79.8277 135.302C67.855 135.302 60.8561 142.19 60.8562 152.726" stroke="black" stroke-width="3" stroke-linecap="round"/>
<path d="M244.68 191.039C244.348 191.039 243.985 190.918 243.713 190.706C243.35 190.434 243.168 189.98 243.168 189.526V20.6684C243.168 19.8215 243.834 19.1561 244.68 19.1561H414.022C414.869 19.1561 415.535 19.8215 415.535 20.6684V156.227C415.535 156.952 415.02 157.557 414.325 157.709L244.983 191.008C244.862 191.039 244.771 191.039 244.68 191.039ZM246.193 22.1806V187.681L412.51 154.987V22.1806H246.193Z" fill="black"/>
<line x1="323.346" y1="71.4198" x2="267.919" y2="71.4198" stroke="black" stroke-width="3" stroke-linecap="round"/>
<line x1="303.232" y1="83.8713" x2="267.919" y2="83.8713" stroke="black" stroke-width="3" stroke-linecap="round"/>
<line x1="341.544" y1="96.3228" x2="267.919" y2="96.3228" stroke="black" stroke-width="3" stroke-linecap="round"/>
<line x1="285.991" y1="108.774" x2="267.919" y2="108.774" stroke="black" stroke-width="3" stroke-linecap="round"/>
<path d="M197.196 211.817H289.443L302.358 207.583L310.826 178.699H391.581L369.139 122.292C369.139 107.774 357.373 96.0088 342.856 96.0088H197.196V211.817Z" fill="#EAEAEA"/>
<path d="M197.196 211.817H289.443L302.358 207.583L310.826 178.699H316.704C316.704 115.416 315.268 107.753 335.381 96.0088C335.381 96.0088 241.822 96.0088 197.196 96.0088V211.817Z" fill="white"/>
<path d="M289.443 213.329H197.196C196.349 213.329 195.684 212.664 195.684 211.817V96.0088C195.684 95.1619 196.349 94.4965 197.196 94.4965H342.856C358.069 94.4965 370.5 106.806 370.651 121.989L393.002 178.124C393.184 178.578 393.123 179.122 392.851 179.546C392.579 179.969 392.095 180.211 391.611 180.211H311.976L303.84 208.006C303.689 208.49 303.326 208.853 302.872 209.004L289.957 213.238C289.776 213.299 289.594 213.329 289.443 213.329ZM198.708 210.305H289.201L301.118 206.403L309.375 178.275C309.556 177.64 310.161 177.186 310.826 177.186H389.342L367.717 122.836C367.657 122.655 367.596 122.473 367.596 122.292C367.596 108.621 356.496 97.521 342.826 97.521H198.708V210.305Z" fill="black"/>
<path d="M317.389 96.0088H173.847C158.18 96.0088 145.477 108.712 145.477 124.379V225.488H181.589L193.324 211.817H289.443" fill="white"/>
<line x1="230.438" y1="122.184" x2="175.012" y2="122.184" stroke="black" stroke-width="3" stroke-linecap="round"/>
<line x1="208.409" y1="134.635" x2="173.097" y2="134.635" stroke="black" stroke-width="3" stroke-linecap="round"/>
<line x1="248.637" y1="147.086" x2="175.012" y2="147.086" stroke="black" stroke-width="3" stroke-linecap="round"/>
<line x1="193.084" y1="159.538" x2="175.012" y2="159.538" stroke="black" stroke-width="3" stroke-linecap="round"/>
<path d="M181.589 227H145.477C144.63 227 143.964 226.335 143.964 225.488V124.379C143.964 107.895 157.363 94.4965 173.847 94.4965H317.389C318.236 94.4965 318.902 95.1619 318.902 96.0088C318.902 96.8556 318.236 97.521 317.389 97.521H173.847C159.026 97.521 146.989 109.559 146.989 124.379V223.975H180.894L192.175 210.819C192.447 210.486 192.871 210.305 193.324 210.305H289.443C290.29 210.305 290.955 210.97 290.955 211.817C290.955 212.664 290.29 213.329 289.443 213.329H194.02L182.739 226.486C182.436 226.819 182.043 227 181.589 227Z" fill="black"/>
<path d="M317.39 185.867C316.543 185.867 315.877 185.201 315.877 184.354V121.868C315.877 106.776 328.157 94.4965 343.249 94.4965C358.341 94.4965 370.621 106.776 370.621 121.868V162.003C370.621 162.85 369.955 163.516 369.109 163.516C368.262 163.516 367.596 162.85 367.596 162.003V121.868C367.596 108.439 356.678 97.521 343.249 97.521C329.82 97.521 318.902 108.439 318.902 121.868V184.354C318.902 185.201 318.236 185.867 317.39 185.867Z" fill="black"/>
<path d="M414.022 86.9655V156.227C414.022 168.627 403.981 178.668 391.581 178.668C379.18 178.668 369.139 168.627 369.139 156.227V121.263" fill="white"/>
<path d="M391.581 180.181C378.364 180.181 367.627 169.444 367.627 156.227V121.263C367.627 120.416 368.292 119.751 369.139 119.751C369.986 119.751 370.651 120.416 370.651 121.263V156.227C370.651 167.78 380.027 177.156 391.581 177.156C403.134 177.156 412.51 167.78 412.51 156.227V86.9655C412.51 86.1186 413.176 85.4532 414.022 85.4532C414.869 85.4532 415.535 86.1186 415.535 86.9655V156.227C415.535 169.444 404.798 180.181 391.581 180.181Z" fill="black"/>
<path d="M244.68 1.51227H414.022V48.755H244.68V1.51227Z" fill="#37BA8B"/>
<path d="M414.022 50.2672H244.68C243.834 50.2672 243.168 49.6018 243.168 48.755V1.51225C243.168 0.665391 243.834 0 244.68 0H414.022C414.869 0 415.535 0.665391 415.535 1.51225V48.755C415.535 49.6018 414.869 50.2672 414.022 50.2672ZM246.193 47.2427H412.51V3.0245H246.193V47.2427Z" fill="black"/>
<path d="M68.9266 185.322C68.9266 207.522 50.9308 225.488 28.7612 225.488H1.66168H182.89C182.89 225.488 198.92 223.219 204.303 211.817C209.687 200.415 235.184 143.04 235.184 143.04H100.472C83.0511 143.04 68.9266 157.164 68.9266 174.585V185.322Z" fill="white"/>
<line x1="149.983" y1="164.327" x2="94.5566" y2="164.327" stroke="black" stroke-width="3" stroke-linecap="round"/>
<line x1="127.953" y1="176.779" x2="92.6409" y2="176.779" stroke="black" stroke-width="3" stroke-linecap="round"/>
<line x1="163.392" y1="189.23" x2="89.7676" y2="189.23" stroke="black" stroke-width="3" stroke-linecap="round"/>
<line x1="104.966" y1="201.681" x2="86.8941" y2="201.681" stroke="black" stroke-width="3" stroke-linecap="round"/>
<path d="M182.89 227H1.66167C0.814805 227 0.149414 226.335 0.149414 225.488C0.149414 224.641 0.814805 223.975 1.66167 223.975H28.7612C50.084 223.975 67.4144 206.645 67.4144 185.322V174.585C67.4144 156.348 82.2344 141.528 100.472 141.528H235.184C235.698 141.528 236.182 141.8 236.454 142.223C236.726 142.647 236.787 143.191 236.575 143.675C236.333 144.25 211.018 201.201 205.695 212.482C200.039 224.49 183.827 226.909 183.132 227C183.041 227 182.95 227 182.89 227ZM44.3374 223.975H182.769C184.069 223.764 198.164 221.253 202.942 211.182C207.661 201.171 228.197 155.047 232.855 144.552H100.472C83.8979 144.552 70.4389 158.011 70.4389 174.585V185.322C70.4389 202.804 59.6414 217.806 44.3374 223.975Z" fill="black"/>
<path d="M289.413 211.817C273.958 211.817 261.436 199.295 261.436 183.84V169.202C261.436 154.745 249.731 143.04 235.274 143.04C220.817 143.04 209.112 154.745 209.112 169.202V195.454C209.112 212.029 195.653 225.488 179.079 225.488C179.079 225.488 197.619 224.732 204.273 211.817H289.413Z" fill="#EAEAEA"/>
<path d="M317.389 132.696V183.84C317.389 199.295 304.868 211.817 289.413 211.817C182.622 211.817 245.221 211.817 289.413 211.817" fill="white"/>
<path d="M179.079 227C178.262 227 177.597 226.335 177.567 225.518C177.537 224.701 178.202 224.006 179.019 223.975C179.14 223.975 186.64 223.582 193.536 220.013C201.944 215.053 207.6 205.889 207.6 195.424V169.172C207.6 153.898 220.001 141.497 235.274 141.497C250.548 141.497 262.949 153.898 262.949 169.172V183.81C262.949 198.388 274.835 210.274 289.413 210.274C303.991 210.274 315.877 198.388 315.877 183.81V132.696C315.877 131.849 316.543 131.184 317.39 131.184C318.236 131.184 318.902 131.849 318.902 132.696V183.84C318.902 200.112 305.685 213.329 289.413 213.329H205.181C202.942 217.231 199.404 220.437 194.806 222.796C190.179 225.457 184.795 227 179.079 227ZM206.904 210.305H276.408C266.638 205.496 259.924 195.424 259.924 183.84V169.202C259.924 155.622 248.854 144.552 235.274 144.552C221.694 144.552 210.625 155.622 210.625 169.202V195.454C210.625 200.808 209.264 205.889 206.904 210.305Z" fill="black"/>
<path d="M264.098 29.5192C267.489 29.5192 270.237 26.7703 270.237 23.3794C270.237 19.9885 267.489 17.2397 264.098 17.2397C260.707 17.2397 257.958 19.9885 257.958 23.3794C257.958 26.7703 260.707 29.5192 264.098 29.5192Z" fill="black"/>
<path d="M282.426 29.5192C285.817 29.5192 288.566 26.7703 288.566 23.3794C288.566 19.9885 285.817 17.2397 282.426 17.2397C279.035 17.2397 276.287 19.9885 276.287 23.3794C276.287 26.7703 279.035 29.5192 282.426 29.5192Z" fill="black"/>
<path d="M300.785 29.5192C304.176 29.5192 306.925 26.7703 306.925 23.3794C306.925 19.9885 304.176 17.2397 300.785 17.2397C297.394 17.2397 294.645 19.9885 294.645 23.3794C294.645 26.7703 297.394 29.5192 300.785 29.5192Z" fill="black"/>
<path d="M317.42 185.897C316.573 185.897 315.908 185.232 315.908 184.385V121.899C315.908 114.579 318.751 107.683 323.923 102.542C325.677 100.788 327.643 99.2752 329.76 98.0957C330.486 97.6723 331.423 97.9445 331.816 98.6703C332.24 99.3962 331.968 100.334 331.242 100.727C329.367 101.786 327.612 103.116 326.07 104.689C321.473 109.286 318.962 115.396 318.962 121.929V184.415C318.932 185.232 318.267 185.897 317.42 185.897Z" fill="black"/>
</svg>
