<svg width="85" height="44" viewBox="0 0 85 44" fill="none" xmlns="http://www.w3.org/2000/svg">
<path d="M3.92772 27.411C2.73333 27.411 1.77781 27.1716 1.06117 26.6927C0.353724 26.2138 0 25.5138 0 24.5928C0 24.5007 0.00918766 24.3626 0.027563 24.1784H3.27999C3.25243 24.4639 3.29377 24.6757 3.40402 24.8139C3.52346 24.952 3.7164 25.0211 3.98285 25.0211C4.14822 25.0211 4.28604 24.9796 4.39629 24.8967C4.50654 24.8139 4.56167 24.6941 4.56167 24.5376C4.56167 24.3165 4.45142 24.1323 4.23091 23.985C4.0196 23.8376 3.67506 23.6626 3.1973 23.46C2.67361 23.239 2.24179 23.0271 1.90184 22.8245C1.57109 22.6219 1.28168 22.3456 1.03361 21.9956C0.785544 21.6457 0.661511 21.2082 0.661511 20.6832C0.661511 19.9925 0.831482 19.3985 1.17143 18.9011C1.52056 18.3946 2.00291 18.0124 2.61848 17.7545C3.23405 17.4966 3.93691 17.3677 4.72705 17.3677C5.43449 17.3677 6.06385 17.4782 6.61511 17.6992C7.17555 17.9203 7.61197 18.2426 7.92435 18.6663C8.24591 19.0807 8.4067 19.5734 8.4067 20.1445C8.4067 20.2181 8.39751 20.3471 8.37914 20.5313H5.08536C5.10374 20.4207 5.11293 20.3471 5.11293 20.3102C5.11293 20.1352 5.06239 20.0017 4.96133 19.9096C4.86027 19.8083 4.72245 19.7576 4.54788 19.7576C4.3917 19.7576 4.26307 19.8037 4.162 19.8958C4.06094 19.9879 4.01041 20.1076 4.01041 20.255C4.01041 20.4576 4.11607 20.6372 4.32738 20.7937C4.5387 20.9411 4.87405 21.1253 5.33343 21.3463C5.85713 21.595 6.28895 21.8299 6.62889 22.0509C6.97802 22.2719 7.27662 22.5666 7.52468 22.935C7.77275 23.2942 7.89678 23.7363 7.89678 24.2613C7.89678 24.8599 7.736 25.3987 7.41443 25.8776C7.10205 26.3565 6.64726 26.7341 6.05007 27.0104C5.45287 27.2775 4.74542 27.411 3.92772 27.411Z" fill="#121212"/>
<path fill-rule="evenodd" clip-rule="evenodd" d="M17.2591 20.8905C17.1489 21.5075 16.91 22.0693 16.5425 22.5759C16.175 23.0732 15.6835 23.4692 15.0679 23.7639C14.4615 24.0587 13.7632 24.206 12.9731 24.206H11.7603L11.2091 27.3143H8.14959L9.87228 17.5335H14.1445C15.1827 17.5335 15.9729 17.7683 16.5149 18.238C17.057 18.7077 17.3281 19.3524 17.3281 20.1721C17.3281 20.3747 17.3051 20.6142 17.2591 20.8905ZM13.0558 21.7884C13.6806 21.7884 14.0481 21.4891 14.1583 20.8905C14.1767 20.7799 14.1859 20.7017 14.1859 20.6556C14.1859 20.2135 13.9148 19.9925 13.3728 19.9925H12.5045L12.1876 21.7884H13.0558Z" fill="#121212"/>
<path d="M21.0233 21.1806L21.23 19.9649H24.6754L25.1026 17.5335H18.5978L16.8751 27.3143H23.3799L23.8072 24.8691H20.3618L20.6099 23.4876H23.6418L24.0552 21.1806H21.0233Z" fill="#121212"/>
<path fill-rule="evenodd" clip-rule="evenodd" d="M31.1711 25.8362H27.9187L27.1745 27.3143H23.9634L29.2555 17.5335H32.7836L34.6165 27.3143H31.3916L31.1711 25.8362ZM30.8404 23.5291L30.4407 20.8076L29.0763 23.5291H30.8404Z" fill="#121212"/>
<path fill-rule="evenodd" clip-rule="evenodd" d="M43.9664 18.238C43.4243 17.7683 42.6296 17.5335 41.5822 17.5335H37.0343L35.3116 27.3143H38.3711L38.9912 23.8054L40.2178 27.3143H43.5805L42.1196 23.5705C42.8363 23.3495 43.4197 22.9903 43.8699 22.493C44.3201 21.9864 44.6049 21.4016 44.7243 20.7385C44.7611 20.5543 44.7795 20.3471 44.7795 20.1168C44.7795 19.334 44.5084 18.7077 43.9664 18.238ZM40.5623 21.7608H39.3496L39.639 20.103H40.8517C41.0998 20.103 41.2882 20.1629 41.4168 20.2826C41.5454 20.3931 41.6097 20.5497 41.6097 20.7523C41.6097 20.826 41.6051 20.8858 41.596 20.9319C41.5408 21.2174 41.426 21.4292 41.2514 21.5674C41.086 21.6963 40.8563 21.7608 40.5623 21.7608Z" fill="#121212"/>
<path d="M60.9528 17.5335L59.2301 27.3143H56.1844L57.0389 22.4515L54.6822 27.3143H52.0638L51.416 22.4101L50.5616 27.3143H47.5021L49.2248 17.5335H52.9733L54.0896 23.4186L57.218 17.5335H60.9528Z" fill="#121212"/>
<path d="M63.4277 27.3143L65.1504 17.5335H62.0909L61.7127 19.6808L64.6892 19.6809L61.4037 21.4352L60.3682 27.3143H63.4277Z" fill="#121212"/>
<path d="M73.9247 27.3143H70.8652L68.4948 22.3963L67.6265 27.3143H64.5671L66.2898 17.5335H69.3492L71.7059 22.5344L72.5879 17.5335H75.6474L73.9247 27.3143Z" fill="#121212"/>
<path d="M84.5728 19.9649L85 17.5335H76.7862L76.359 19.9649H78.9224L77.6269 27.3143H80.6864L81.9818 19.9649H84.5728Z" fill="#121212"/>
<path d="M32.9037 15.7949C35.168 8.27938 38.9 3.16453 42.0823 3.76542C43.5577 4.044 44.6951 5.50959 45.4278 7.78131C44.9504 7.21165 44.3957 6.84846 43.7703 6.73037C41.2019 6.24541 38.2365 10.0446 36.2704 15.8016L37.4535 15.804C39.0731 11.6514 41.3163 9.0103 43.2702 9.37923C44.6247 9.63501 45.5812 11.2886 46.0385 13.7641C45.6455 13.0061 45.1349 12.5266 44.5227 12.411C43.2666 12.1738 41.8502 13.5194 40.6703 15.8103L42.3509 15.8137C42.9095 15.2397 43.4849 14.9583 44.0226 15.0599C45.6589 15.3688 46.3271 19.107 45.5268 23.3452C44.7266 27.5833 42.7413 30.8205 41.105 30.5115C40.5334 30.4036 40.0799 29.8771 39.7659 29.0571H38.3125C38.6246 31.3669 39.4265 32.9379 40.6048 33.1604C41.1865 33.2702 41.8025 33.0406 42.4135 32.535C41.1143 34.5584 39.6675 35.6747 38.3519 35.4263C36.6615 35.1071 35.591 32.6109 35.337 29.0571H34.1505C34.2626 34.0411 35.5981 37.6496 37.8518 38.0752C38.4771 38.1932 39.1261 38.0573 39.7784 37.701C38.2677 39.5491 36.6742 40.499 35.1989 40.2205C32.4927 39.7095 30.9235 35.2048 30.9033 29.0571H29.3334C29.1043 37.1769 31.0177 43.2705 34.4988 43.9278C39.1367 44.8035 44.702 35.6797 46.9887 23.5692C49.2754 11.4587 47.4202 0.933841 42.7824 0.0581221C38.7569 -0.701969 34.0327 6.07112 31.3601 15.7919L32.9037 15.7949Z" fill="url(#paint0_linear)"/>
<defs>
<linearGradient id="paint0_linear" x1="35.6859" y1="44.0448" x2="43.0382" y2="0.0504651" gradientUnits="userSpaceOnUse">
<stop offset="0.145833" stop-color="#37BA8A"/>
<stop offset="0.822917" stop-color="#37C277"/>
</linearGradient>
</defs>
</svg>
