<svg width="699" height="264" viewBox="0 0 699 264" fill="none" xmlns="http://www.w3.org/2000/svg">
<path d="M32.8542 177.01C22.8635 177.01 14.8709 175.007 8.8764 171.001C2.9588 166.995 0 161.14 0 153.436C0 152.666 0.0768521 151.51 0.230556 149.97H27.4362C27.2056 152.358 27.5514 154.13 28.4737 155.285C29.4727 156.441 31.0866 157.018 33.3153 157.018C34.6987 157.018 35.8514 156.672 36.7737 155.978C37.6959 155.285 38.157 154.284 38.157 152.974C38.157 151.125 37.2348 149.584 35.3903 148.352C33.6227 147.119 30.7408 145.655 26.7445 143.961C22.3639 142.112 18.7519 140.34 15.9084 138.645C13.1417 136.95 10.7209 134.639 8.64585 131.712C6.57084 128.784 5.53334 125.125 5.53334 120.734C5.53334 114.956 6.9551 109.987 9.79863 105.827C12.719 101.59 16.7537 98.3927 21.9028 96.2356C27.0519 94.0785 32.9311 93 39.5403 93C45.4579 93 50.7223 93.9245 55.3334 95.7734C60.0214 97.6223 63.6719 100.319 66.2848 103.862C68.9746 107.329 70.3195 111.451 70.3195 116.227C70.3195 116.843 70.2427 117.922 70.089 119.463H42.5376C42.6913 118.538 42.7681 117.922 42.7681 117.614C42.7681 116.15 42.3454 115.033 41.5001 114.262C40.6547 113.415 39.5019 112.991 38.0417 112.991C36.7352 112.991 35.6593 113.377 34.8139 114.147C33.9686 114.917 33.5459 115.919 33.5459 117.151C33.5459 118.846 34.4297 120.348 36.1973 121.658C37.9649 122.891 40.77 124.431 44.6126 126.28C48.9931 128.36 52.6052 130.325 55.4487 132.174C58.3691 134.023 60.8668 136.488 62.9418 139.569C65.0168 142.574 66.0543 146.272 66.0543 150.663C66.0543 155.67 64.7094 160.177 62.0195 164.183C59.4066 168.189 55.6024 171.348 50.607 173.659C45.6116 175.893 39.694 177.01 32.8542 177.01Z" fill="#121212"/>
<path fill-rule="evenodd" clip-rule="evenodd" d="M144.368 122.467C143.445 127.629 141.447 132.328 138.373 136.565C135.299 140.725 131.188 144.038 126.038 146.503C120.966 148.968 115.126 150.201 108.516 150.201H98.3718L93.7607 176.201H68.1689L82.5787 94.3867H118.315C126.999 94.3867 133.608 96.3512 138.143 100.28C142.677 104.209 144.944 109.602 144.944 116.458C144.944 118.153 144.752 120.156 144.368 122.467ZM109.208 129.978C114.434 129.978 117.508 127.474 118.43 122.467C118.584 121.543 118.661 120.888 118.661 120.503C118.661 116.805 116.394 114.956 111.859 114.956H104.597L101.945 129.978H109.208Z" fill="#121212"/>
<path d="M175.854 124.894L177.583 114.725H206.402L209.976 94.3867H155.565L141.155 176.201H195.566L199.14 155.747H170.32L172.395 144.192H197.757L201.215 124.894H175.854Z" fill="#121212"/>
<path fill-rule="evenodd" clip-rule="evenodd" d="M260.737 163.836H233.532L227.307 176.201H200.447L244.714 94.3867H274.225L289.557 176.201H262.582L260.737 163.836ZM257.971 144.538L254.628 121.774L243.215 144.538H257.971Z" fill="#121212"/>
<path fill-rule="evenodd" clip-rule="evenodd" d="M367.766 100.28C363.231 96.3512 356.584 94.3867 347.823 94.3867H309.781L295.371 176.201H320.963L326.15 146.849L336.41 176.201H364.538L352.318 144.885C358.313 143.036 363.193 140.032 366.959 135.872C370.725 131.635 373.107 126.743 374.106 121.196C374.413 119.655 374.567 117.922 374.567 115.996C374.567 109.448 372.3 104.209 367.766 100.28ZM339.292 129.747H329.148L331.568 115.88H341.713C343.788 115.88 345.363 116.381 346.439 117.382C347.515 118.307 348.053 119.617 348.053 121.311C348.053 121.928 348.015 122.428 347.938 122.814C347.477 125.202 346.516 126.974 345.056 128.129C343.673 129.208 341.751 129.747 339.292 129.747Z" fill="#121212"/>
<path d="M497.852 94.3867L483.443 176.201H457.966L465.113 135.525L445.401 176.201H423.498L418.08 135.178L410.933 176.201H385.341L399.751 94.3867H431.106L440.444 143.614L466.612 94.3867H497.852Z" fill="#121212"/>
<path d="M518.554 176.201L532.964 94.3867H507.372L504.208 112.349L529.106 112.349L501.624 127.024L492.962 176.201H518.554Z" fill="#121212"/>
<path d="M606.358 176.201H580.766L560.939 135.063L553.676 176.201H528.084L542.494 94.3867H568.086L587.798 136.218L595.176 94.3867H620.768L606.358 176.201Z" fill="#121212"/>
<path d="M695.426 114.725L699 94.3867H630.294L626.721 114.725H648.162L637.326 176.201H662.918L673.754 114.725H695.426Z" fill="#121212"/>
<path d="M294.202 124.138C305.583 63.8637 333.303 18.5465 356.248 22.879C365.077 24.5462 371.884 33.3173 376.27 46.9127C373.412 43.5035 370.093 41.3299 366.35 40.6232C352.83 38.0703 337.471 55.3542 325.961 83.0001H333.826C342.785 65.1892 353.665 54.6459 363.357 56.4757C371.463 58.0065 377.188 67.9027 379.924 82.7179C377.572 78.1814 374.516 75.3116 370.853 74.6198C364.756 73.4687 358.028 78.5478 351.936 87.8223C355.092 88.629 359.328 89.2779 365 89.5001C366.117 89.5439 367.135 89.8932 368.057 90.5126C377.706 92.624 381.619 114.865 376.862 140.057C372.089 165.335 360.272 184.663 350.498 182.963C350.221 182.988 349.941 183 349.66 183H335.423C337.871 191.948 341.969 197.771 347.405 198.798C350.886 199.455 354.573 198.081 358.23 195.055C350.454 207.165 341.796 213.845 333.923 212.358C326.164 210.894 320.588 201.767 317.724 188H309.668C312.173 210.546 319.619 226.075 330.929 228.211C334.672 228.918 338.556 228.104 342.459 225.972C333.419 237.032 323.882 242.717 315.053 241.05C300.172 238.24 291.036 215.253 289.556 183H279.841C280.012 227.167 291.302 259.543 310.863 263.237C338.619 268.478 371.925 213.875 385.611 141.398C399.296 68.9209 388.193 5.93296 360.437 0.692079C333.946 -4.31007 302.398 45.2034 287.68 112.742L291.745 139.299C292.417 134.319 293.235 129.257 294.202 124.138Z" fill="url(#paint0_linear)"/>
<defs>
<linearGradient id="paint0_linear" x1="310.935" y1="316.422" x2="372.435" y2="-51.5779" gradientUnits="userSpaceOnUse">
<stop offset="0.145833" stop-color="#37BA8A"/>
<stop offset="0.822917" stop-color="#37C277"/>
</linearGradient>
</defs>
</svg>
