<svg width="416" height="228" viewBox="0 0 416 228" fill="none" xmlns="http://www.w3.org/2000/svg">
<path d="M244.812 96.3924H344.592C344.592 96.3924 359.349 96.6159 365.375 108.947C371.667 121.821 369.24 146.987 369.24 154.884C369.24 170.345 381.151 178.072 391.756 178.072C412.798 178.072 414.154 157.081 414.154 157.081L414.154 48.552H244.812L244.812 96.3924Z" fill="white"/>
<path d="M317.621 184.463C317.621 198.559 303.987 212.424 291.277 212.424C273.946 212.424 261.467 197.635 261.467 187.698V166.9C261.467 157.657 252.224 143.329 234.892 143.329H145.693V122.532C145.693 106.125 161.176 96.6503 173.193 96.6503H337.956C330.099 96.6503 317.621 108.898 317.621 120.452V184.463Z" fill="white"/>
<path d="M69.0584 185.562C69.0584 207.762 51.0626 225.727 28.893 225.727H1.79346H183.022C183.022 225.727 199.052 223.459 204.435 212.056C206.817 207.012 209.445 204.338 209.445 173.808C209.445 143.279 233.867 143.279 233.867 143.279H100.604C83.1828 143.279 69.0584 157.404 69.0584 174.825V185.562Z" fill="white"/>
<path d="M317.644 121.203C317.644 136.362 317.644 178.938 317.644 178.938C317.644 178.938 412.543 178.938 391.712 178.938C382.821 178.938 377.489 174.035 372.996 168.301C368.503 162.567 369.271 143.311 369.271 122.531C369.271 108.747 356.956 96.2485 344.431 96.2485C331.906 96.2485 317.644 106.044 317.644 121.203Z" fill="#EAEAEA"/>
<path d="M289.545 212.056C274.089 212.056 261.568 199.535 261.568 184.08V169.441C261.568 154.984 249.863 143.279 235.406 143.279C220.949 143.279 209.244 154.984 209.244 169.441V195.694C209.244 202.598 207.026 205.998 204.405 212.056H289.545Z" fill="#EAEAEA"/>
<path fill-rule="evenodd" clip-rule="evenodd" d="M324.977 71.6595C324.977 72.4879 324.306 73.1595 323.477 73.1595H268.051C267.223 73.1595 266.551 72.4879 266.551 71.6595C266.551 70.8311 267.223 70.1595 268.051 70.1595H323.477C324.306 70.1595 324.977 70.8311 324.977 71.6595Z" fill="black"/>
<path fill-rule="evenodd" clip-rule="evenodd" d="M304.863 84.111C304.863 84.9394 304.192 85.611 303.363 85.611H268.051C267.223 85.611 266.551 84.9394 266.551 84.111C266.551 83.2825 267.223 82.611 268.051 82.611H303.363C304.192 82.611 304.863 83.2825 304.863 84.111Z" fill="black"/>
<path fill-rule="evenodd" clip-rule="evenodd" d="M232.07 122.423C232.07 123.252 231.399 123.923 230.57 123.923H175.144C174.316 123.923 173.644 123.252 173.644 122.423C173.644 121.595 174.316 120.923 175.144 120.923H230.57C231.399 120.923 232.07 121.595 232.07 122.423Z" fill="black"/>
<path fill-rule="evenodd" clip-rule="evenodd" d="M210.041 134.875C210.041 135.703 209.369 136.375 208.541 136.375H173.228C172.4 136.375 171.728 135.703 171.728 134.875C171.728 134.046 172.4 133.375 173.228 133.375H208.541C209.369 133.375 210.041 134.046 210.041 134.875Z" fill="black"/>
<path fill-rule="evenodd" clip-rule="evenodd" d="M151.615 164.567C151.615 165.395 150.943 166.067 150.115 166.067H94.6884C93.86 166.067 93.1884 165.395 93.1884 164.567C93.1884 163.738 93.86 163.067 94.6884 163.067H150.115C150.943 163.067 151.615 163.738 151.615 164.567Z" fill="black"/>
<path fill-rule="evenodd" clip-rule="evenodd" d="M129.585 177.018C129.585 177.846 128.913 178.518 128.085 178.518H92.7728C91.9443 178.518 91.2728 177.846 91.2728 177.018C91.2728 176.19 91.9443 175.518 92.7728 175.518H128.085C128.913 175.518 129.585 176.19 129.585 177.018Z" fill="black"/>
<path fill-rule="evenodd" clip-rule="evenodd" d="M165.024 189.47C165.024 190.298 164.352 190.97 163.524 190.97H89.8994C89.0709 190.97 88.3994 190.298 88.3994 189.47C88.3994 188.641 89.0709 187.97 89.8994 187.97H163.524C164.352 187.97 165.024 188.641 165.024 189.47Z" fill="black"/>
<path fill-rule="evenodd" clip-rule="evenodd" d="M106.598 201.921C106.598 202.749 105.926 203.421 105.098 203.421H87.0259C86.1975 203.421 85.5259 202.749 85.5259 201.921C85.5259 201.093 86.1975 200.421 87.0259 200.421H105.098C105.926 200.421 106.598 201.093 106.598 201.921Z" fill="black"/>
<path fill-rule="evenodd" clip-rule="evenodd" d="M319.034 179.968V185.099C319.034 185.203 319.024 185.305 319.004 185.403C318.312 201.063 305.374 213.57 289.545 213.57H205.312C203.074 217.472 199.535 220.678 194.938 223.037C190.601 225.532 185.599 227.043 180.281 227.223V227.241H1.79346C0.946533 227.241 0.28125 226.576 0.28125 225.729C0.28125 224.882 0.946533 224.216 1.79346 224.216H28.8931C50.2158 224.216 67.5461 206.886 67.5461 185.563V174.826C67.5461 156.589 82.3662 141.768 100.604 141.768H144.096V124.62C144.096 108.136 157.495 94.7375 173.978 94.7375H243.3V48.9904C243.3 48.1435 243.965 47.4782 244.812 47.4782H414.154C415.001 47.4782 415.667 48.1435 415.667 48.9904V156.014C415.667 169.211 404.963 179.935 391.775 179.968M367.728 154.423C367.728 154.528 367.739 154.631 367.758 154.73V156.014C367.758 165.005 372.727 172.848 380.064 176.945H319.034V122.613C319.034 109.184 330.021 97.7619 343.45 97.7619C356.879 97.7619 367.728 109.184 367.728 122.613V154.423ZM391.712 179.968H319.034ZM342.781 94.7375H246.324V50.5026H412.642V86.7433L412.642 86.7531V156.014C412.642 167.568 403.266 176.944 391.712 176.944C380.159 176.944 370.783 167.568 370.783 156.014V121.051C370.783 120.843 370.743 120.646 370.669 120.467C369.535 105.912 357.153 94.7375 342.781 94.7375ZM147.121 141.768H234.103C234.535 141.748 234.969 141.738 235.406 141.738C250.68 141.738 263.08 154.139 263.08 169.413V184.051C263.08 198.629 274.967 210.516 289.545 210.516C304.123 210.516 316.009 198.629 316.009 184.051V132.937L316.009 132.909V122.613C316.009 111.614 322.531 102.109 331.91 97.7619H173.978C159.158 97.7619 147.121 109.799 147.121 124.62V141.768ZM222.763 144.793H100.604C84.0298 144.793 70.5708 158.252 70.5708 174.826V185.563C70.5708 203.045 59.7732 218.047 44.4692 224.216H179.153C179.347 224.212 186.807 223.805 193.668 220.254C202.076 215.294 207.732 206.13 207.732 195.665V169.413C207.732 158.693 213.84 149.388 222.763 144.793ZM207.036 210.546H276.539C266.77 205.737 260.056 195.665 260.056 184.081V169.443C260.056 155.863 248.986 144.793 235.406 144.793C221.826 144.793 210.756 155.863 210.756 169.443V195.695C210.756 201.049 209.395 206.13 207.036 210.546Z" fill="black"/>
<path d="M414.154 49.4828H244.812C243.965 49.4828 243.3 48.831 243.3 48.0014V1.72113C243.3 0.89152 243.965 0.239685 244.812 0.239685H414.154C415.001 0.239685 415.666 0.89152 415.666 1.72113V48.0014C415.666 48.831 415.001 49.4828 414.154 49.4828Z" fill="#37BA8B"/>
<path d="M414.154 50.2672H244.812C243.965 50.2672 243.3 49.6018 243.3 48.755V1.51225C243.3 0.665391 243.965 0 244.812 0H414.154C415.001 0 415.666 0.665391 415.666 1.51225V48.755C415.666 49.6018 415.001 50.2672 414.154 50.2672ZM246.325 47.2427H412.642V3.0245H246.325V47.2427Z" fill="black"/>
<path d="M264.23 29.7589C267.62 29.7589 270.369 27.0101 270.369 23.6192C270.369 20.2283 267.62 17.4794 264.23 17.4794C260.839 17.4794 258.09 20.2283 258.09 23.6192C258.09 27.0101 260.839 29.7589 264.23 29.7589Z" fill="black"/>
<path d="M282.558 29.7589C285.949 29.7589 288.698 27.0101 288.698 23.6192C288.698 20.2283 285.949 17.4794 282.558 17.4794C279.167 17.4794 276.418 20.2283 276.418 23.6192C276.418 27.0101 279.167 29.7589 282.558 29.7589Z" fill="black"/>
<path d="M300.917 29.7589C304.308 29.7589 307.057 27.0101 307.057 23.6192C307.057 20.2283 304.308 17.4794 300.917 17.4794C297.526 17.4794 294.777 20.2283 294.777 23.6192C294.777 27.0101 297.526 29.7589 300.917 29.7589Z" fill="black"/>
<path fill-rule="evenodd" clip-rule="evenodd" d="M137.802 89.5919C140.707 86.8725 145.05 85.2357 150.753 85.2357C151.581 85.2357 152.253 84.5642 152.253 83.7357C152.253 82.9073 151.581 82.2357 150.753 82.2357C144.483 82.2357 139.34 84.0431 135.752 87.4019C132.154 90.7702 130.281 95.549 130.281 101.16C130.281 101.988 130.953 102.66 131.781 102.66C132.61 102.66 133.281 101.988 133.281 101.16C133.281 96.2352 134.908 92.3018 137.802 89.5919Z" fill="black"/>
<path fill-rule="evenodd" clip-rule="evenodd" d="M64.0092 138.398C66.914 135.678 71.257 134.042 76.9596 134.042C77.788 134.042 78.4596 133.37 78.4596 132.542C78.4596 131.713 77.788 131.042 76.9596 131.042C70.6895 131.042 65.5466 132.849 61.9589 136.208C58.3609 139.576 56.488 144.355 56.488 149.966C56.488 150.794 57.1596 151.466 57.988 151.466C58.8165 151.466 59.488 150.794 59.488 149.966C59.488 145.041 61.1146 141.108 64.0092 138.398Z" fill="black"/>
</svg>
