<svg width="218" height="293" viewBox="0 0 218 293" fill="none" xmlns="http://www.w3.org/2000/svg">
<path d="M72.3883 52.3818C82.3756 34.0358 95.0032 17.3149 107.368 0.541501C108.354 -0.533556 109.983 0.144053 110.628 1.25101C117.045 9.97703 123.754 18.4839 129.964 27.3581C140.14 41.7861 149.243 57.0508 156.16 73.3211C163.282 89.9983 167.947 107.707 170.003 125.722C172.099 142.471 171.381 159.378 171.438 176.21C171.467 180.572 171.362 184.94 171.462 189.305C179.093 189.362 186.835 192.067 192.363 197.427C197.125 201.886 200.469 207.872 201.535 214.323C202.2 217.854 201.948 221.454 201.988 225.02C201.921 246.886 201.881 268.754 201.816 290.616C201.941 292.054 200.397 293.125 199.096 292.494C193.767 290.705 188.197 289.244 183.532 285.98C173.738 279.449 167.562 267.996 167.384 256.235C166.606 256.062 165.815 255.952 165.02 255.964C151.657 256.028 138.29 255.87 124.932 255.976C124.71 258.232 124.793 260.496 124.788 262.757C124.782 271.601 124.744 280.442 124.754 289.28C124.685 290.178 124.873 291.22 124.217 291.948C123.679 292.683 122.597 292.502 121.792 292.597C113.269 292.598 104.749 292.551 96.2239 292.596C94.945 292.727 93.3649 291.875 93.5387 290.419C93.5073 278.925 93.6402 267.43 93.5649 255.935C79.4811 255.841 65.3894 255.809 51.3025 255.887C51.0116 258.473 50.8682 261.09 50.2514 263.626C49.27 267.828 47.4081 271.775 45.2286 275.476C41.7672 280.351 37.3847 284.698 32.0402 287.473C28.6183 289.441 24.7773 290.46 21.0752 291.758C20.1388 292.056 19.1931 292.428 18.2004 292.475C17.0842 292.288 16.5259 291.161 16.6169 290.121C16.6554 268.364 16.7081 246.612 16.744 224.86C16.8134 221.457 16.5568 218.021 17.1501 214.649C18.2046 207.558 22.0229 200.979 27.466 196.349C32.974 191.656 40.1525 189.196 47.359 189.149C47.4366 188.279 47.4831 187.406 47.4895 186.534C47.4952 176.099 47.528 165.665 47.5505 155.23C47.4377 142.368 48.038 129.472 50.0689 116.755C53.451 94.152 61.3275 72.3449 72.3883 52.3818ZM55.5669 107.915C52.6172 121.993 51.3668 136.385 51.3834 150.757C51.3391 169.599 51.3117 188.441 51.2778 207.284C51.234 209.007 51.2173 210.732 51.3844 212.451C54.4702 212.617 57.5555 212.473 60.639 212.525C71.624 212.472 82.6136 212.648 93.5951 212.475C93.8427 205.607 93.6505 198.725 93.7325 191.853C93.7719 191.2 93.7883 190.48 94.244 189.96C94.8194 189.194 95.8879 189.327 96.7306 189.235C105.03 189.258 113.334 189.283 121.636 189.251C122.736 189.27 124.156 189.29 124.714 190.434C125.121 192.415 124.872 194.461 124.911 196.471C124.954 201.809 124.79 207.154 124.946 212.49C131.079 212.728 137.22 212.527 143.356 212.609C151.384 212.534 159.425 212.759 167.447 212.534C167.566 210.547 167.558 208.558 167.539 206.568C167.572 187.96 167.635 169.349 167.658 150.74C167.58 131.294 165.047 111.796 159.343 93.1818C154.281 76.4485 146.663 60.5618 137.513 45.6929C128.905 31.5076 118.748 18.3503 108.69 5.18696C100.813 15.9821 92.7479 26.6563 85.5192 37.9088C71.5765 59.2533 60.6474 82.8386 55.5669 107.915ZM20.57 220.061C20.5449 240.349 20.4861 260.636 20.4648 280.926C20.4543 283.195 20.3494 285.461 20.5564 287.724C24.9592 286.638 29.2692 284.962 33.0447 282.416C42.1739 276.203 47.8063 265.194 47.3233 254.139C47.3111 233.815 47.4722 213.484 47.3526 193.161C37.5326 192.624 27.8539 198.677 23.4807 207.406C21.4017 211.276 20.5917 215.699 20.57 220.061ZM51.0735 251.874C51.7976 252.051 52.5465 252.165 53.2945 252.156C66.6799 252.118 80.0648 252.232 93.449 252.171C93.8353 248.79 93.5062 245.378 93.6312 241.984C93.586 233.476 93.7659 224.967 93.6107 216.463C81.0708 216.321 68.5341 216.433 55.9954 216.348C54.387 216.308 52.7797 216.359 51.1774 216.47C51.1484 228.271 51.1426 240.071 51.0735 251.874ZM97.6005 199.83C97.4942 229.367 97.4849 258.901 97.341 288.436C99.4665 289.086 101.717 288.646 103.901 288.757C109.546 288.634 115.207 288.971 120.841 288.605C121.056 280.237 120.886 271.864 120.985 263.492C120.997 247.679 121.066 231.865 121.085 216.051C121.054 208.435 121.242 200.819 121.048 193.211C118.019 192.96 114.982 193.192 111.951 193.103C107.199 193.185 102.441 192.925 97.696 193.214C97.5253 195.42 97.5965 197.625 97.6005 199.83ZM124.834 252.152C127.669 252.357 130.512 252.197 133.35 252.264C144.702 252.25 156.049 252.328 167.4 252.291C167.644 249.725 167.44 247.149 167.512 244.579C167.508 235.239 167.567 225.896 167.536 216.555C153.337 216.473 139.135 216.447 124.937 216.506C124.783 228.386 124.831 240.273 124.834 252.152ZM171.418 201.765C171.319 219.935 171.264 238.107 171.242 256.279C171.305 267.574 177.825 278.516 187.649 284.056C190.844 285.851 194.355 286.965 197.825 288.09C198.145 286.164 198.031 284.206 198.019 282.265C198.042 261.302 198.124 240.345 198.134 219.384C198.121 212.083 194.868 204.906 189.448 200.039C184.605 195.701 178.072 193.037 171.533 193.336C171.309 196.141 171.45 198.955 171.418 201.765Z" fill="black"/>
<path d="M55.3215 107.915C60.4021 82.8386 71.3311 59.2532 85.2738 37.9088C92.5025 26.6563 100.568 15.982 108.445 5.18692C118.503 18.3503 128.66 31.5075 137.268 45.6929C146.418 60.5617 154.036 76.4484 159.098 93.1817C164.802 111.796 167.335 131.294 167.413 150.74C167.39 169.349 167.327 187.96 167.294 206.568C167.313 208.558 167.321 210.547 167.201 212.534C159.179 212.759 151.139 212.534 143.111 212.609C136.975 212.527 130.834 212.727 124.701 212.49C124.544 207.154 124.709 201.809 124.666 196.471C124.626 194.461 124.876 192.415 124.469 190.434C123.91 189.29 122.491 189.27 121.391 189.251C113.089 189.283 104.785 189.257 96.4852 189.235C95.6425 189.327 94.574 189.194 93.9986 189.96C93.5429 190.48 93.5265 191.2 93.4871 191.853C93.4051 198.725 93.5974 205.607 93.3497 212.475C82.3682 212.648 71.3787 212.472 60.3936 212.525C57.3102 212.473 54.2248 212.617 51.1391 212.451C50.9719 210.732 50.9886 209.007 51.0324 207.284C51.0663 188.441 51.0938 169.598 51.138 150.756C51.1215 136.385 52.3718 121.993 55.3215 107.915Z" fill="white"/>
<path d="M123.505 102.088L113.474 116.984C113.312 117.199 113.237 117.468 113.264 117.736C113.292 118.004 113.419 118.252 113.622 118.43C113.824 118.607 114.087 118.702 114.356 118.694C114.625 118.686 114.882 118.576 115.073 118.387L124.944 109.854C125.001 109.801 125.072 109.767 125.148 109.755C125.225 109.742 125.303 109.753 125.373 109.785C125.443 109.816 125.503 109.868 125.544 109.934C125.585 109.999 125.607 110.075 125.605 110.152V136.973C125.604 137.055 125.579 137.134 125.532 137.201C125.485 137.267 125.418 137.318 125.342 137.345C125.265 137.373 125.182 137.377 125.104 137.356C125.025 137.336 124.954 137.291 124.902 137.229L95.0548 101.496C94.5783 100.923 93.9822 100.46 93.3082 100.141C92.6343 99.8225 91.8988 99.6551 91.1534 99.6509H90.1141C88.7585 99.6509 87.4584 100.19 86.4999 101.149C85.5413 102.108 85.0028 103.409 85.0028 104.766V142.536C85.0028 143.893 85.5413 145.194 86.4999 146.153C87.4584 147.112 88.7585 147.651 90.1141 147.651C90.9875 147.651 91.8464 147.427 92.6087 147C93.371 146.573 94.0113 145.958 94.4685 145.213L104.499 130.317C104.662 130.102 104.737 129.834 104.709 129.566C104.682 129.297 104.554 129.05 104.352 128.872C104.149 128.694 103.887 128.6 103.618 128.608C103.348 128.616 103.092 128.725 102.9 128.915L93.0295 137.448C92.9725 137.5 92.9016 137.535 92.8253 137.547C92.7491 137.559 92.6709 137.549 92.6006 137.517C92.5302 137.485 92.4707 137.433 92.4295 137.368C92.3882 137.303 92.367 137.227 92.3686 137.149V110.355C92.3694 110.273 92.395 110.194 92.442 110.128C92.489 110.061 92.5552 110.011 92.6317 109.983C92.7082 109.955 92.7913 109.951 92.87 109.972C92.9487 109.993 93.0192 110.037 93.0721 110.099L122.919 145.832C123.399 146.401 123.997 146.857 124.672 147.171C125.347 147.484 126.082 147.646 126.826 147.645H127.892C128.563 147.645 129.227 147.513 129.848 147.256C130.468 146.999 131.031 146.622 131.506 146.147C131.98 145.672 132.357 145.109 132.614 144.488C132.871 143.868 133.003 143.202 133.003 142.531V104.766C133.003 104.091 132.87 103.423 132.611 102.801C132.352 102.178 131.972 101.613 131.494 101.138C131.016 100.662 130.449 100.286 129.825 100.031C129.202 99.7758 128.533 99.6466 127.86 99.6509C126.986 99.651 126.127 99.875 125.365 100.302C124.603 100.728 123.962 101.343 123.505 102.088Z" fill="black"/>
<path d="M20.5698 220.061C20.5915 215.699 21.4014 211.276 23.4805 207.406C27.8537 198.677 37.5323 192.624 47.3523 193.161C47.472 213.484 47.3108 233.815 47.3231 254.139C47.806 265.194 42.1736 276.203 33.0445 282.416C29.2689 284.962 24.9589 286.638 20.5561 287.724C20.3492 285.461 20.4541 283.195 20.4645 280.926C20.4858 260.636 20.5446 240.349 20.5698 220.061Z" fill="#37BA8B"/>
<path d="M97.6003 199.83C97.5963 197.625 97.5251 195.42 97.6958 193.214C102.44 192.925 107.199 193.185 111.951 193.103C114.981 193.192 118.019 192.96 121.048 193.211C121.242 200.819 121.054 208.435 121.085 216.051C121.066 231.865 120.997 247.679 120.985 263.492C120.886 271.864 121.055 280.237 120.841 288.605C115.207 288.971 109.545 288.634 103.901 288.757C101.717 288.646 99.4663 289.086 97.3408 288.436C97.4847 258.901 97.494 229.367 97.6003 199.83Z" fill="#37BA8B"/>
<path d="M171.418 201.765C171.45 198.955 171.309 196.141 171.533 193.336C178.071 193.037 184.605 195.701 189.447 200.039C194.868 204.906 198.121 212.083 198.134 219.384C198.123 240.345 198.042 261.302 198.019 282.265C198.031 284.206 198.145 286.164 197.824 288.09C194.355 286.965 190.843 285.851 187.648 284.056C177.825 278.516 171.305 267.574 171.242 256.279C171.264 238.107 171.319 219.935 171.418 201.765Z" fill="#37BA8B"/>
<path d="M51.0734 251.874C51.1425 240.071 51.1483 228.271 51.1773 216.47C52.7796 216.359 54.3869 216.308 55.9953 216.348C68.534 216.433 81.0707 216.321 93.6106 216.463C93.7658 224.967 93.5859 233.476 93.6311 241.984C93.5061 245.378 93.8352 248.79 93.4489 252.171C80.0647 252.232 66.6798 252.118 53.2944 252.156C52.5464 252.165 51.7975 252.051 51.0734 251.874Z" fill="#EAEAEA"/>
<path d="M124.834 252.152C124.831 240.273 124.782 228.386 124.937 216.506C139.135 216.447 153.337 216.473 167.536 216.555C167.567 225.896 167.508 235.239 167.512 244.579C167.44 247.149 167.644 249.725 167.4 252.291C156.049 252.328 144.702 252.25 133.35 252.264C130.512 252.197 127.669 252.357 124.834 252.152Z" fill="#EAEAEA"/>
<path d="M192.894 174.913C205.869 174.913 213.453 182.105 213.453 193.105" stroke="black" stroke-width="3" stroke-linecap="round"/>
<path d="M25.1237 174.913C12.1495 174.913 4.56525 182.105 4.5653 193.105" stroke="black" stroke-width="3" stroke-linecap="round"/>
</svg>
