<svg width="86" height="46" viewBox="0 0 86 46" fill="none" xmlns="http://www.w3.org/2000/svg">
<path d="M3.97466 28.4821C2.76621 28.4821 1.79946 28.2398 1.07439 27.7553C0.358618 27.2707 0.000732422 26.5625 0.000732422 25.6307C0.000732422 25.5375 0.0100282 25.3977 0.0286197 25.2114H3.31931C3.29142 25.5003 3.33325 25.7146 3.4448 25.8543C3.56565 25.9941 3.76086 26.064 4.03043 26.064C4.19776 26.064 4.33719 26.0221 4.44874 25.9382C4.56029 25.8543 4.61607 25.7332 4.61607 25.5748C4.61607 25.3512 4.50452 25.1648 4.28142 25.0157C4.06762 24.8666 3.71903 24.6896 3.23565 24.4846C2.70579 24.2609 2.26889 24.0466 1.92495 23.8416C1.5903 23.6366 1.29749 23.3571 1.0465 23.003C0.795518 22.6489 0.670025 22.2063 0.670025 21.6751C0.670025 20.9763 0.841997 20.3752 1.18594 19.872C1.53918 19.3595 2.0272 18.9728 2.65002 18.7119C3.27283 18.451 3.98396 18.3206 4.78339 18.3206C5.49916 18.3206 6.13592 18.4324 6.69366 18.656C7.2607 18.8796 7.70225 19.2058 8.01831 19.6344C8.34366 20.0537 8.50633 20.5523 8.50633 21.13C8.50633 21.2045 8.49704 21.335 8.47845 21.5214H5.14592C5.16452 21.4095 5.17381 21.335 5.17381 21.2977C5.17381 21.1207 5.12268 20.9856 5.02043 20.8924C4.91818 20.7899 4.77874 20.7386 4.60212 20.7386C4.44409 20.7386 4.31395 20.7852 4.2117 20.8784C4.10945 20.9716 4.05832 21.0927 4.05832 21.2418C4.05832 21.4468 4.16522 21.6285 4.37902 21.7869C4.59283 21.936 4.93212 22.1224 5.39691 22.346C5.92676 22.5976 6.36367 22.8352 6.70761 23.0589C7.06085 23.2825 7.36296 23.5807 7.61394 23.9534C7.86493 24.3168 7.99042 24.7641 7.99042 25.2952C7.99042 25.9009 7.82774 26.446 7.50239 26.9306C7.18634 27.4151 6.7262 27.7972 6.12198 28.0767C5.51775 28.347 4.80198 28.4821 3.97466 28.4821Z" fill="white"/>
<path fill-rule="evenodd" clip-rule="evenodd" d="M17.4629 21.8848C17.3514 22.5091 17.1097 23.0775 16.7379 23.59C16.366 24.0932 15.8687 24.4939 15.2459 24.7921C14.6324 25.0902 13.9259 25.2393 13.1265 25.2393H11.8994L11.3417 28.3842H8.2462L9.98915 18.4883H14.3117C15.3621 18.4883 16.1615 18.7259 16.71 19.2011C17.2584 19.6764 17.5326 20.3286 17.5326 21.158C17.5326 21.363 17.5094 21.6052 17.4629 21.8848ZM13.2101 22.7933C13.8422 22.7933 14.2141 22.4905 14.3256 21.8848C14.3442 21.773 14.3535 21.6938 14.3535 21.6472C14.3535 21.1999 14.0793 20.9763 13.5308 20.9763H12.6524L12.3317 22.7933H13.2101Z" fill="white"/>
<path d="M21.2714 22.1783L21.4805 20.9483H24.9664L25.3987 18.4883H18.8173L17.0743 28.3842H23.6557L24.088 25.9103H20.6021L20.8531 24.5125H23.9206L24.339 22.1783H21.2714Z" fill="white"/>
<path fill-rule="evenodd" clip-rule="evenodd" d="M31.5386 26.8887H28.2479L27.4949 28.3842H24.2461L29.6004 18.4883H33.17L35.0245 28.3842H31.7617L31.5386 26.8887ZM31.2039 24.5545L30.7996 21.8009L29.4191 24.5545H31.2039Z" fill="white"/>
<path fill-rule="evenodd" clip-rule="evenodd" d="M44.4843 19.2011C43.9359 18.7259 43.1318 18.4883 42.0721 18.4883H37.4707L35.7278 28.3842H38.8232L39.4507 24.834L40.6917 28.3842H44.0939L42.6159 24.5964C43.341 24.3727 43.9313 24.0093 44.3867 23.5061C44.8422 22.9936 45.1304 22.4019 45.2512 21.731C45.2884 21.5447 45.307 21.335 45.307 21.102C45.307 20.31 45.0328 19.6764 44.4843 19.2011ZM41.0403 22.7654H39.8132L40.1061 21.0881H41.3331C41.5841 21.0881 41.7746 21.1486 41.9048 21.2698C42.0349 21.3816 42.1 21.54 42.1 21.745C42.1 21.8196 42.0953 21.8801 42.086 21.9267C42.0303 22.2156 41.9141 22.4299 41.7375 22.5697C41.5701 22.7001 41.3377 22.7654 41.0403 22.7654Z" fill="white"/>
<path d="M61.6706 18.4883L59.9277 28.3842H56.8461L57.7106 23.4642L55.3263 28.3842H52.677L52.0217 23.4223L51.1571 28.3842H48.0617L49.8046 18.4883H53.5973L54.7267 24.4426L57.8919 18.4883H61.6706Z" fill="white"/>
<path d="M64.1746 28.3842L65.9176 18.4883H62.8221L62.4394 20.6609L65.451 20.661L62.1268 22.4359L61.0792 28.3842H64.1746Z" fill="white"/>
<path d="M74.7951 28.3842H71.6996L69.3013 23.4083L68.4229 28.3842H65.3274L67.0704 18.4883H70.1658L72.5502 23.5481L73.4426 18.4883H76.5381L74.7951 28.3842Z" fill="white"/>
<path d="M85.5685 20.9483L86.0007 18.4883H77.6903L77.2581 20.9483H79.8516L78.5409 28.3842H81.6364L82.9471 20.9483H85.5685Z" fill="white"/>
<path d="M33.2914 16.7293C35.5823 9.12532 39.3583 3.95029 42.578 4.55825C44.0707 4.84011 45.2215 6.32295 45.9629 8.62139C45.4798 8.04503 44.9186 7.67757 44.2858 7.55809C41.6872 7.06742 38.6869 10.9113 36.6977 16.736L37.8947 16.7384C39.5334 12.537 41.8029 9.86484 43.7798 10.2381C45.1503 10.4969 46.1181 12.1699 46.5807 14.6746C46.1831 13.9077 45.6665 13.4225 45.0471 13.3055C43.7762 13.0656 42.3431 14.427 41.1493 16.7449L42.8497 16.7482C43.4149 16.1675 43.9971 15.8828 44.5411 15.9856C46.1966 16.2982 46.8727 20.0803 46.063 24.3683C45.2533 28.6564 43.2447 31.9316 41.5892 31.619C41.0108 31.5098 40.552 30.9772 40.2343 30.1475H38.7638C39.0796 32.4845 39.8909 34.0739 41.0831 34.299C41.6716 34.4101 42.2949 34.1779 42.9131 33.6663C41.5986 35.7135 40.1348 36.8429 38.8037 36.5916C37.0933 36.2687 36.0103 33.7431 35.7533 30.1475H34.5529C34.6662 35.1901 36.0174 38.8411 38.2976 39.2716C38.9304 39.3911 39.587 39.2536 40.2469 38.8931C38.7185 40.7629 37.1063 41.724 35.6135 41.4422C32.8755 40.9252 31.2879 36.3675 31.2674 30.1475H29.6791C29.4473 38.3629 31.3832 44.5281 34.9053 45.1931C39.5977 46.0791 45.2284 36.848 47.5421 24.5951C49.8557 12.3421 47.9786 1.69336 43.2863 0.807341C39.2135 0.0383081 34.4337 6.89108 31.7296 16.7262L33.2914 16.7293Z" fill="url(#paint0_linear)"/>
<defs>
<linearGradient id="paint0_linear" x1="36.1063" y1="45.3115" x2="43.5451" y2="0.799594" gradientUnits="userSpaceOnUse">
<stop offset="0.145833" stop-color="#37BA8A"/>
<stop offset="0.822917" stop-color="#37C277"/>
</linearGradient>
</defs>
</svg>
